<?xml version="1.0"?>
<svg width="793.7007874015749" height="1122.5196850393702" xmlns="http://www.w3.org/2000/svg" xmlns:svg="http://www.w3.org/2000/svg" xmlns:xlink="http://www.w3.org/1999/xlink">
 <!-- Created with SVG-edit - http://svg-edit.googlecode.com/ -->
 <defs>
  <symbol id="svg_12" height="480" width="640" xmlns:svg="http://www.w3.org/2000/svg" xmlns="http://www.w3.org/2000/svg">
   <!-- Created with SVG-edit - http://svg-edit.googlecode.com/ -->
   <g stroke="null">
    <title>Layer 1</title>
    <line fill="none" stroke-width="5" x1="102" y1="374" x2="298" y2="375" id="svg_11" stroke="#000000"/>
    <line fill="none" stroke-width="5" x1="202" y1="373" x2="206" y2="108" id="svg_10" stroke="#000000"/>
    <line fill="none" stroke-width="5" x1="205" y1="111" x2="340" y2="111" id="svg_9" stroke="#000000"/>
    <line fill="none" stroke-width="5" x1="206" y1="170" x2="259" y2="110" id="svg_8" stroke="#000000"/>
    <line fill="none" stroke-width="5" x1="338" y1="109" x2="338" y2="140" id="svg_7" stroke="#000000"/>
    <ellipse fill="none" stroke-width="5" cx="337" cy="161" id="svg_6" rx="15" ry="23" stroke="#000000"/>
    <line fill="none" stroke="#000000" stroke-width="5" x1="337" y1="185" x2="338" y2="248" id="svg_5"/>
    <line fill="none" stroke="#000000" stroke-width="5" stroke-dasharray="null" stroke-linejoin="null" stroke-linecap="null" x1="335.714294" y1="201.142883" x2="385.714294" y2="179.142883" id="svg_4"/>
    <line fill="none" stroke-width="5" stroke-dasharray="null" stroke-linejoin="null" stroke-linecap="null" x1="340.714302" y1="201.642857" x2="296.7143" y2="179.642857" id="svg_3" stroke="#000000"/>
    <line fill="none" stroke-width="5" stroke-dasharray="null" stroke-linejoin="null" stroke-linecap="null" x1="338.714294" y1="248.142883" x2="366.714295" y2="299.142882" id="svg_2" stroke="#000000"/>
    <line fill="none" stroke-width="5" stroke-dasharray="null" stroke-linejoin="null" stroke-linecap="null" x1="339.714303" y1="244.142857" x2="309.714303" y2="299.142856" id="svg_1" stroke="#000000"/>
   </g>
  </symbol>
 </defs>
 <g>
  <title>Layer 1</title>
  <use x="0" y="0" transform="matrix(0.584645688533783,0,0,0.584645688533783,0,0) " xlink:href="#svg_12" id="svg_13"/>
  <ellipse ry="3" rx="1" id="svg_14" cy="89" cx="194" stroke-width="2" stroke="#000000" fill="#FF0000"/>
  <ellipse stroke="#000000" id="svg_16" ry="3" rx="1" cy="89" cx="200" stroke-width="2" fill="#FF0000"/>
 </g>
</svg>