<?xml version="1.0" encoding="UTF-8" standalone="no"?>
<svg
   xmlns:dc="http://purl.org/dc/elements/1.1/"
   xmlns:cc="http://creativecommons.org/ns#"
   xmlns:rdf="http://www.w3.org/1999/02/22-rdf-syntax-ns#"
   xmlns:svg="http://www.w3.org/2000/svg"
   xmlns="http://www.w3.org/2000/svg"
   xmlns:sodipodi="http://sodipodi.sourceforge.net/DTD/sodipodi-0.dtd"
   xmlns:inkscape="http://www.inkscape.org/namespaces/inkscape"
   width="640"
   height="480"
   stroke="null"
   style="vector-effect: non-scaling-stroke;"
   id="svg3008"
   version="1.1"
   inkscape:version="0.48.4 r9939"
   sodipodi:docname="hangman-789.svg">
  <metadata
     id="metadata3029">
    <rdf:RDF>
      <cc:Work
         rdf:about="">
        <dc:format>image/svg+xml</dc:format>
        <dc:type
           rdf:resource="http://purl.org/dc/dcmitype/StillImage" />
        <dc:title></dc:title>
      </cc:Work>
    </rdf:RDF>
  </metadata>
  <defs
     id="defs3027" />
  <sodipodi:namedview
     pagecolor="#ffffff"
     bordercolor="#666666"
     borderopacity="1"
     objecttolerance="10"
     gridtolerance="10"
     guidetolerance="10"
     inkscape:pageopacity="0"
     inkscape:pageshadow="2"
     inkscape:window-width="1340"
     inkscape:window-height="812"
     id="namedview3025"
     showgrid="false"
     inkscape:zoom="4.46"
     inkscape:cx="320"
     inkscape:cy="311.46907"
     inkscape:window-x="0"
     inkscape:window-y="0"
     inkscape:window-maximized="0"
     inkscape:current-layer="svg3008" />
  <!-- Created with SVG-edit - http://svg-edit.googlecode.com/ -->
  <g
     stroke="null"
     id="g3010">
    <title
       stroke="null"
       id="title3012">Layer 1</title>
    <line
       stroke="#000000"
       id="svg_1"
       y2="375"
       x2="298"
       y1="374"
       x1="102"
       stroke-width="5"
       fill="none" />
    <line
       stroke="#000000"
       id="svg_2"
       y2="108"
       x2="206"
       y1="373"
       x1="202"
       stroke-width="5"
       fill="none" />
    <line
       stroke="#000000"
       id="svg_3"
       y2="111"
       x2="340"
       y1="111"
       x1="205"
       stroke-width="5"
       fill="none" />
    <line
       stroke="#000000"
       id="svg_4"
       y2="110"
       x2="259"
       y1="170"
       x1="206"
       stroke-width="5"
       fill="none" />
    <line
       stroke="#000000"
       id="svg_5"
       y2="140"
       x2="338"
       y1="109"
       x1="338"
       stroke-width="5"
       fill="none" />
    <ellipse
       stroke="#000000"
       ry="23"
       rx="15"
       id="svg_6"
       cy="161"
       cx="337"
       stroke-width="5"
       fill="none" />
    <line
       id="svg_8"
       y2="248"
       x2="338"
       y1="185"
       x1="337"
       stroke-width="5"
       stroke="#000000"
       fill="none" />
    <line
       id="svg_9"
       y2="179.142883"
       x2="385.714294"
       y1="201.142883"
       x1="335.714294"
       stroke-linecap="null"
       stroke-linejoin="null"
       stroke-dasharray="null"
       stroke-width="5"
       stroke="#000000"
       fill="none" />
    <line
       stroke="#000000"
       id="svg_10"
       y2="179.642857"
       x2="296.7143"
       y1="201.642857"
       x1="340.714302"
       stroke-linecap="null"
       stroke-linejoin="null"
       stroke-dasharray="null"
       stroke-width="5"
       fill="none" />
    <line
       stroke="#000000"
       id="svg_11"
       y2="299.142882"
       x2="366.714295"
       y1="248.142883"
       x1="338.714294"
       stroke-linecap="null"
       stroke-linejoin="null"
       stroke-dasharray="null"
       stroke-width="5"
       fill="none" />
    <line
       stroke="#000000"
       id="svg_12"
       y2="299.142856"
       x2="309.714303"
       y1="244.142857"
       x1="339.714303"
       stroke-linecap="null"
       stroke-linejoin="null"
       stroke-dasharray="null"
       stroke-width="5"
       fill="none" />
  </g>
  <path
     style="fill:none;stroke:#000000;stroke-width:3;stroke-linecap:butt;stroke-linejoin:miter;stroke-opacity:1"
     d="m 329.51494,169.79345 c 8.75991,-11.0315 14.89921,0.22063 14.89921,0.22063 l 0,0"
     id="path3031"
     inkscape:connector-curvature="0"
     sodipodi:nodetypes="ccc" />
  <path
     style="fill:none;stroke:#000000;stroke-width:1px;stroke-linecap:butt;stroke-linejoin:miter;stroke-opacity:1"
     d="m 329.59641,148.83408 c 0.76781,-0.23422 0.69304,0.68284 1.12108,0.89686 0.30927,0.15464 0.20055,-0.27154 0.44843,0.22422 0,0.5979 -0.0747,-0.0747 0.22421,0.22421 0.11818,0.11817 0.10605,0.33026 0.22422,0.44843 0.0528,0.0529 0.20058,-0.0709 0.22422,0 0.0709,0.21271 -0.0709,0.45994 0,0.67265 0.0236,0.0709 0.17136,-0.0529 0.22421,0 0.46391,0.46391 -0.70891,-0.0181 0.22422,0.44843 0.0668,0.0334 0.17136,-0.0529 0.22421,0 0.0528,0.0528 -0.0334,0.15737 0,0.22421 0.0473,0.0945 0.17695,0.12968 0.22422,0.22422 0.0334,0.0669 -0.0529,0.17137 0,0.22421 0.0528,0.0529 0.17136,-0.0528 0.22421,0 0.0529,0.0529 -0.0334,0.15737 0,0.22422 0.0473,0.0945 0.14948,0.14948 0.22422,0.22422 0.74362,0.74362 -0.1057,-0.2114 0.22421,0.44843 0.13453,0.26905 0.53812,0.40358 0.67265,0.67264 0.0668,0.1337 -0.1057,0.34274 0,0.44843 0.10569,0.1057 0.31473,-0.0668 0.44843,0 0.0945,0.0473 0.29895,0.14948 0.22421,0.22422 -0.0747,0.0747 -0.14947,-0.14948 -0.22421,-0.22422"
     id="path3053"
     inkscape:connector-curvature="0" />
  <path
     style="fill:none;stroke:#000000;stroke-width:1px;stroke-linecap:butt;stroke-linejoin:miter;stroke-opacity:1"
     d="m 330.49327,155.33632 c 0.14948,-0.29895 0.29896,-0.5979 0.44843,-0.89686 0,-0.0747 -0.0334,-0.15737 0,-0.22421 0.0945,-0.18908 0.3539,-0.25936 0.44843,-0.44843 0.0334,-0.0668 -0.0528,-0.17137 0,-0.22422 0.0528,-0.0529 0.17137,0.0529 0.22422,0 10e-4,-0.001 -0.002,-0.66515 0,-0.67264 0.37756,-1.51026 0.003,-0.003 0.44843,-0.44844 0.0747,-0.0746 -0.0746,-0.37378 0,-0.44843 0.0529,-0.0528 0.17137,0.0528 0.22422,0 0.0528,-0.0528 -0.0334,-0.15736 0,-0.22421 0.0473,-0.0945 0.19079,-0.12394 0.22421,-0.22422 0.0473,-0.1418 -0.0668,-0.31473 0,-0.44843 0.0334,-0.0668 0.15737,0.0334 0.22422,0 0.93313,-0.46656 -0.2397,0.0155 0.22421,-0.44843 0.0529,-0.0529 0.17137,0.0529 0.22422,0 0.11817,-0.11817 0.10604,-0.33026 0.22421,-0.44843 0.0528,-0.0529 0.17137,0.0529 0.22422,0 0.0528,-0.0529 -0.0334,-0.15736 0,-0.22421 0.0473,-0.0945 0.17694,-0.12968 0.22421,-0.22422 0.0669,-0.13369 -0.0473,-0.30662 0,-0.44843 0.0747,-0.14948 0.14948,-0.29895 0.22422,-0.44843 0.0747,0 0.17136,0.0529 0.22421,0 0.0528,-0.0529 -0.0334,-0.15737 0,-0.22421 0.0473,-0.0945 0.14948,-0.14948 0.22422,-0.22422 0.0747,-0.0747 0.14947,-0.14948 0.22421,-0.22422"
     id="path3057"
     inkscape:connector-curvature="0" />
  <path
     style="fill:none;stroke:#000000;stroke-width:1px;stroke-linecap:butt;stroke-linejoin:miter;stroke-opacity:1"
     d="m 340.58296,148.38565 c 0.21229,0.68707 0.46142,0.90985 0.89686,1.34529 0.0747,0.0747 0.17695,0.12968 0.22422,0.22422 0.0334,0.0668 -0.0529,0.17136 0,0.22421 0.0528,0.0529 0.17136,-0.0529 0.22421,0 0.0529,0.0529 -0.0236,0.15331 0,0.22422 0.0529,0.15854 0.10604,0.33026 0.22422,0.44843 0.11817,0.11817 0.33026,0.10604 0.44843,0.22421 0.0528,0.0528 -0.0529,0.17137 0,0.22422 0.0528,0.0528 0.15736,-0.0334 0.22421,0 0.34341,0.1717 0.17534,0.39955 0.44843,0.67264 0.0528,0.0528 0.19079,-0.0668 0.22422,0 0.0668,0.1337 -0.0473,0.30663 0,0.44843 0.0668,0.20055 0.33117,0.27255 0.44843,0.44844 0.0927,0.13905 0.10604,0.33025 0.22421,0.44843 0.0529,0.0528 0.17137,-0.0529 0.22422,0 0.0529,0.0528 -0.0334,0.15736 0,0.22421 0.24787,0.49575 0.13916,0.0696 0.44843,0.22422 0.55413,0.27706 -0.0774,0.22421 0.44843,0.22421"
     id="path3065"
     inkscape:connector-curvature="0" />
  <path
     style="fill:none;stroke:#000000;stroke-width:1px;stroke-linecap:butt;stroke-linejoin:miter;stroke-opacity:1"
     d="m 344.61883,148.60987 c 0,0.44843 0,0.89686 0,1.34529 0,0.0747 0.0528,0.17136 0,0.22421 -0.46391,0.46391 0.0181,-0.70891 -0.44843,0.22422 -0.15463,0.30927 0.27154,0.20055 -0.22421,0.44843 -0.0668,0.0334 -0.17137,-0.0529 -0.22422,0 -0.11817,0.11817 -0.13151,0.30938 -0.22421,0.44843 -0.13607,0.2041 -0.57328,0.47391 -0.67265,0.67264 -0.15463,0.30928 0.27154,0.20056 -0.22421,0.44843 -0.59791,0 0.0747,-0.0747 -0.22422,0.22422 -0.46391,0.46391 0.0181,-0.70891 -0.44843,0.22422 -0.0334,0.0668 0.0236,0.15331 0,0.22421 -0.27095,0.81285 -0.10638,0.15957 -0.44843,0.67265 -0.0927,0.13905 -0.13151,0.30937 -0.22421,0.44843 0.0224,0.44418 -0.33026,0.10604 -0.44844,0.22421 -0.0528,0.0529 0,0.14948 0,0.22422 -0.14947,0.0747 -0.29895,0.14947 -0.44843,0.22421"
     id="path3067"
     inkscape:connector-curvature="0" />
</svg>
